<?xml version="1.0" standalone="no"?>
<!DOCTYPE svg PUBLIC "-//W3C//DTD SVG 20010904//EN"
 "http://www.w3.org/TR/2001/REC-SVG-20010904/DTD/svg10.dtd">
<svg version="1.0" xmlns="http://www.w3.org/2000/svg"
 width="324.000000pt" height="324.000000pt" viewBox="0 0 324.000000 324.000000"
 preserveAspectRatio="xMidYMid meet">
<metadata>
Created by potrace 1.11, written by Peter Selinger 2001-2013
</metadata>
<g transform="translate(0.000000,324.000000) scale(0.100000,-0.100000)"
fill="#000000" stroke="none">
<path d="M1380 3006 c-382 -50 -713 -209 -975 -471 -400 -399 -506 -977 -270
-1471 199 -416 593 -712 1096 -824 272 -61 621 -46 884 36 575 181 977 611
1065 1139 16 96 14 312 -4 412 -30 167 -108 358 -206 505 -62 93 -196 237
-296 319 -204 167 -489 293 -779 345 -121 22 -383 27 -515 10z"/>
</g>
</svg>
